HIERARCHY
ROOT root
{
	OFFSET	0	13.1	24.9
	CHANNELS 6  Xposition Yposition Zposition Xrotation Yrotation Zrotation
	JOINT spine_1
	{
		OFFSET	0	9.99999	0
		CHANNELS 3  Xrotation Yrotation Zrotation
		JOINT spine_2
		{
			OFFSET	0	112	-10
			CHANNELS 3  Xrotation Yrotation Zrotation
			JOINT spine_3
			{
				OFFSET	0	206.5	19.3
				CHANNELS 3  Xrotation Yrotation Zrotation
				JOINT spine_4
				{
					OFFSET	0	110.4	14.6
					CHANNELS 3  Xrotation Yrotation Zrotation
					JOINT neck_1
					{
						OFFSET	0	71.8	-50.3
						CHANNELS 3  Xrotation Yrotation Zrotation
						JOINT neck_2
						{
							OFFSET	0	86.2	-25.8
							CHANNELS 3  Xrotation Yrotation Zrotation
							JOINT head_ee
							{
								OFFSET	0	179.8	-8.7
								CHANNELS 3  Xrotation Yrotation Zrotation
								End Site
								{
									OFFSET	1	0	0
								}
							}
						}
					}
					JOINT left_clavicle
					{
						OFFSET	-43.2	22.4	-70.8
						CHANNELS 3  Xrotation Yrotation Zrotation
						JOINT left_shoulder
						{
							OFFSET	-93.9	-5.79999	48.7
							CHANNELS 3  Xrotation Yrotation Zrotation
							JOINT left_elbow
							{
								OFFSET	-291.4	-30.8	15.2
								CHANNELS 3  Xrotation Yrotation Zrotation
								JOINT left_lowarm_twist
								{
									OFFSET	-110.7	-3.89999	13.6
									CHANNELS 3  Xrotation Yrotation Zrotation
									JOINT left_hand
									{
										OFFSET	-110.7	-3.89999	13.6
										CHANNELS 3  Xrotation Yrotation Zrotation
										JOINT left_ee
										{
											OFFSET	-80.8	-5.10001	12.1
											CHANNELS 3  Xrotation Yrotation Zrotation
											End Site
											{
												OFFSET	1	0	0
											}
										}
									}
								}
							}
						}
					}
					JOINT right_clavicle
					{
						OFFSET	43.2	22.4	-70.8
						CHANNELS 3  Xrotation Yrotation Zrotation
						JOINT right_shoulder
						{
							OFFSET	93.9	-5.79999	48.7
							CHANNELS 3  Xrotation Yrotation Zrotation
							JOINT right_elbow
							{
								OFFSET	291.4	-30.8	15.2
								CHANNELS 3  Xrotation Yrotation Zrotation
								JOINT right_lowarm_twist
								{
									OFFSET	110.7	-3.89999	13.6
									CHANNELS 3  Xrotation Yrotation Zrotation
									JOINT right_hand
									{
										OFFSET	110.7	-3.89999	13.6
										CHANNELS 3  Xrotation Yrotation Zrotation
										JOINT right_ee
										{
											OFFSET	80.8	-5.10001	12.1
											CHANNELS 3  Xrotation Yrotation Zrotation
											End Site
											{
												OFFSET	1	0	0
											}
										}
									}
								}
							}
						}
					}
				}
			}
		}
	}
	JOINT left_hip
	{
		OFFSET	-82.8	-127.5	0.300001
		CHANNELS 3  Xrotation Yrotation Zrotation
		JOINT left_knee
		{
			OFFSET	-28.2	-396.7	2.2
			CHANNELS 3  Xrotation Yrotation Zrotation
			JOINT left_ankle
			{
				OFFSET	-11.7	-411.3	35.4
				CHANNELS 3  Xrotation Yrotation Zrotation
				JOINT left_toes
				{
					OFFSET	0	-60	-88.6
					CHANNELS 3  Xrotation Yrotation Zrotation
					JOINT left_foot_ee
					{
						OFFSET	-22.5	-16.5	-42.2
						CHANNELS 3  Xrotation Yrotation Zrotation
						End Site
						{
							OFFSET	1	0	0
						}
					}
				}
			}
		}
	}
	JOINT right_hip
	{
		OFFSET	82.8	-127.5	0.300001
		CHANNELS 3  Xrotation Yrotation Zrotation
		JOINT right_knee
		{
			OFFSET	28.2	-396.7	2.2
			CHANNELS 3  Xrotation Yrotation Zrotation
			JOINT right_ankle
			{
				OFFSET	11.7	-411.3	35.4
				CHANNELS 3  Xrotation Yrotation Zrotation
				JOINT right_toes
				{
					OFFSET	0	-60	-88.6
					CHANNELS 3  Xrotation Yrotation Zrotation
					JOINT right_foot_ee
					{
						OFFSET	22.5	-16.5	-42.2
						CHANNELS 3  Xrotation Yrotation Zrotation
						End Site
						{
							OFFSET	1	0	0
						}
					}
				}
			}
		}
	}
}
MOTION
Frames: 13
Frame Time: 0.02
2971.72506678 684.761 -1915.91447079 -15.004548599 21.986564404 11.959667003 6.86784 -0.349671 -1.00361 6.86835 -0.285103 -1.02383 6.87268 -0.19008 -1.04564 6.87133 -0.352826 -1.00251 -11.8299 5.7563 -0.367155 -11.8931 11.1459 1.25738 -0.0 0.0 -0.0 4.74102 8.63468 9.37355 20.1216 29.2899 68.1439 0.614761 -16.9374 0.0915345 20.3052 0.263069 -2.56691 1.86395 15.7568 18.2587 -0.0 0.0 -0.0 0.0238475 -6.16757 -0.776017 27.7178 -76.7234 -49.3551 0.205339 5.80824 -0.0104169 78.8677 3.70863 8.54466 -4.45536 -18.482 19.7997 0.0 0.0 0.0 33.4327 -15.5265 -2.77323 -35.6348 -0.212661 5.37756 33.3824 15.7639 -4.30369 -10.013 0.0 0.0 -0.0 0.0 -0.0 35.4881 18.1 -11.0557 -56.4874 1.83286 -8.12721 36.2098 -24.1175 4.76367 32.1116 -0.0 -0.0 0.0 0.0 0.0 
2956.35146038 685.706 -1928.14698681 -15.2581097834 23.0546655421 11.374549164 6.86523 -0.415506 -0.912668 6.86562 -0.356591 -0.937255 6.87085 -0.269178 -0.965994 6.86979 -0.418354 -0.911366 -11.8557 5.24786 -1.40821 -11.91 10.8545 0.114982 -0.0 0.0 -0.0 5.22867 6.95032 10.2348 21.3922 28.6626 68.5349 0.647629 -17.7872 0.101343 22.0272 0.243276 -2.78597 2.11402 16.1675 20.0317 -0.0 0.0 -0.0 -0.554089 -6.42789 0.23563 25.4667 -76.9785 -50.531 0.229666 6.49078 -0.0130229 78.2239 3.63534 8.5065 -4.04519 -16.3166 18.5215 0.0 0.0 0.0 32.8667 -10.3703 -2.51897 -35.4473 -0.202813 5.35049 32.8931 11.4716 -4.20972 -10.3446 0.0 0.0 -0.0 0.0 -0.0 36.931 18.0605 -10.4655 -58.5501 2.04548 -8.36377 36.3648 -24.9136 4.8025 32.7557 -0.0 -0.0 0.0 0.0 0.0 
2953.44021656 685.706 -1925.63668798 -15.3319082089 23.6792432484 11.5606153047 6.86523 -0.415506 -0.912668 6.86562 -0.356591 -0.937255 6.87085 -0.269178 -0.965994 6.86979 -0.418354 -0.911366 -11.8557 5.24786 -1.40821 -11.91 10.8545 0.114982 -0.0 0.0 -0.0 5.22867 6.95032 10.2348 21.3922 28.6626 68.5349 0.647629 -17.7872 0.101343 22.0272 0.243276 -2.78597 2.11402 16.1675 20.0317 -0.0 0.0 -0.0 -0.554089 -6.42789 0.23563 25.4667 -76.9785 -50.531 0.229666 6.49078 -0.0130229 78.2239 3.63534 8.5065 -4.04519 -16.3166 18.5215 0.0 0.0 0.0 32.8667 -10.3703 -2.51897 -35.4473 -0.202813 5.35049 32.8931 11.4716 -4.20972 -10.3446 0.0 0.0 -0.0 0.0 -0.0 36.931 18.0605 -10.4655 -58.5501 2.04548 -8.36377 36.3648 -24.9136 4.8025 32.7557 -0.0 -0.0 0.0 0.0 0.0 
2915.18636817 690.788 -1932.00098976 -13.9405348732 28.7443410093 11.9092904112 6.44974 -0.363787 -1.00656 6.45025 -0.299003 -1.02767 6.45492 -0.195904 -1.0522 6.45356 -0.359612 -1.00806 -13.7754 4.88899 -1.84193 -13.8453 10.4508 -0.225759 -0.0 0.0 -0.0 6.12044 4.62947 11.882 25.5871 28.6401 68.1344 0.697963 -19.0729 0.117257 24.2168 0.208615 -3.0635 2.42606 16.424 22.1862 -0.0 0.0 -0.0 -1.44383 -6.65463 1.80953 21.5099 -77.4149 -53.3531 0.238238 6.73087 -0.0140097 77.5949 3.56415 8.46842 -3.54407 -14.6508 16.2576 0.0 0.0 0.0 31.6038 -4.37113 -3.01064 -35.9391 -0.228832 5.42144 33.0798 6.79176 -4.20888 -11.1538 0.0 0.0 -0.0 0.0 -0.0 41.1565 17.103 -10.3871 -59.62 2.1591 -8.48345 37.9788 -25.6983 4.99156 33.1667 -0.0 -0.0 0.0 0.0 0.0 
2845.96623947 696.597 -1932.71272044 -12.3850458388 35.7333814721 8.80455406879 5.46096 -0.4862 -0.288843 5.46088 -0.466835 -0.319196 5.46354 -0.426615 -0.371242 5.46367 -0.479891 -0.299207 -18.2881 5.04025 -0.280939 -18.4085 9.84938 1.7026 -0.0 0.0 -0.0 5.45122 1.73909 10.5813 30.0331 26.3611 69.4904 0.840012 -22.5929 0.167799 26.0083 0.172382 -3.28948 3.06602 18.9823 27.24 -0.0 0.0 -0.0 -1.36498 -8.15645 1.44494 22.5041 -79.5486 -52.3418 0.423242 11.8414 -0.0438927 79.328 3.76129 8.57143 -2.80688 -13.8102 11.9687 0.0 0.0 0.0 23.9937 -0.196102 1.83531 -33.9154 -0.125709 5.12816 38.1858 4.63518 -4.69747 -9.09129 0.0 0.0 -0.0 0.0 -0.0 52.3874 19.0689 -10.3536 -53.1294 1.5055 -7.72643 35.9803 -26.6638 4.81635 32.0006 -0.0 -0.0 0.0 0.0 0.0 
2843.43479906 696.597 -1929.49959958 -12.4716815582 36.2743753205 8.95193213184 5.46096 -0.4862 -0.288843 5.46088 -0.466835 -0.319196 5.46354 -0.426615 -0.371242 5.46367 -0.479891 -0.299207 -18.2881 5.04025 -0.280939 -18.4085 9.84938 1.7026 -0.0 0.0 -0.0 5.45122 1.73909 10.5813 30.0331 26.3611 69.4904 0.840012 -22.5929 0.167799 26.0083 0.172382 -3.28948 3.06602 18.9823 27.24 -0.0 0.0 -0.0 -1.36498 -8.15645 1.44494 22.5041 -79.5486 -52.3418 0.423242 11.8414 -0.0438927 79.328 3.76129 8.57143 -2.80688 -13.8102 11.9687 0.0 0.0 0.0 23.9937 -0.196102 1.83531 -33.9154 -0.125709 5.12816 38.1858 4.63518 -4.69747 -9.09129 0.0 0.0 -0.0 0.0 -0.0 52.3874 19.0689 -10.3536 -53.1294 1.5055 -7.72643 35.9803 -26.6638 4.81635 32.0006 -0.0 -0.0 0.0 0.0 0.0 
2842.19197828 696.597 -1927.89842576 -12.515475994 36.5423770617 9.02571749886 5.46096 -0.4862 -0.288843 5.46088 -0.466835 -0.319196 5.46354 -0.426615 -0.371242 5.46367 -0.479891 -0.299207 -18.2881 5.04025 -0.280939 -18.4085 9.84938 1.7026 -0.0 0.0 -0.0 5.45122 1.73909 10.5813 30.0331 26.3611 69.4904 0.840012 -22.5929 0.167799 26.0083 0.172382 -3.28948 3.06602 18.9823 27.24 -0.0 0.0 -0.0 -1.36498 -8.15645 1.44494 22.5041 -79.5486 -52.3418 0.423242 11.8414 -0.0438927 79.328 3.76129 8.57143 -2.80688 -13.8102 11.9687 0.0 0.0 0.0 23.9937 -0.196102 1.83531 -33.9154 -0.125709 5.12816 38.1858 4.63518 -4.69747 -9.09129 0.0 0.0 -0.0 0.0 -0.0 52.3874 19.0689 -10.3536 -53.1294 1.5055 -7.72643 35.9803 -26.6638 4.81635 32.0006 -0.0 -0.0 0.0 0.0 0.0 
2829.45563747 692.854 -1927.44659841 -12.0966157368 37.2265714251 8.45090693483 5.30461 -0.446944 -0.0995182 5.30451 -0.439706 -0.127757 5.30558 -0.421403 -0.179117 5.30581 -0.444402 -0.110315 -19.2584 5.03107 0.110485 -19.3839 9.63462 2.1487 -0.0 0.0 -0.0 5.17865 0.979789 10.0371 31.2462 25.7026 69.5621 0.871341 -23.3466 0.180026 26.4776 0.161724 -3.34847 3.28596 18.5532 28.665 -0.0 0.0 -0.0 -1.13932 -8.14588 1.04695 22.0919 -80.1658 -52.5417 0.456084 12.7313 -0.0508817 79.8687 3.82342 8.60235 -2.63767 -13.8723 10.8549 0.0 0.0 0.0 22.5679 2.21453 1.82494 -32.7887 -0.0728113 4.96338 40.3145 3.34899 -4.88675 -8.15869 0.0 0.0 -0.0 0.0 -0.0 54.2563 20.4755 -9.69863 -51.1718 1.32575 -7.48428 37.2755 -26.5057 4.94631 32.3148 -0.0 -0.0 0.0 0.0 0.0 
2829.15472353 692.854 -1927.04097445 -12.1072748046 37.2919239565 8.46851293188 5.30461 -0.446944 -0.0995182 5.30451 -0.439706 -0.127757 5.30558 -0.421403 -0.179117 5.30581 -0.444402 -0.110315 -19.2584 5.03107 0.110485 -19.3839 9.63462 2.1487 -0.0 0.0 -0.0 5.17865 0.979789 10.0371 31.2462 25.7026 69.5621 0.871341 -23.3466 0.180026 26.4776 0.161724 -3.34847 3.28596 18.5532 28.665 -0.0 0.0 -0.0 -1.13932 -8.14588 1.04695 22.0919 -80.1658 -52.5417 0.456084 12.7313 -0.0508817 79.8687 3.82342 8.60235 -2.63767 -13.8723 10.8549 0.0 0.0 0.0 22.5679 2.21453 1.82494 -32.7887 -0.0728113 4.96338 40.3145 3.34899 -4.88675 -8.15869 0.0 0.0 -0.0 0.0 -0.0 54.2563 20.4755 -9.69863 -51.1718 1.32575 -7.48428 37.2755 -26.5057 4.94631 32.3148 -0.0 -0.0 0.0 0.0 0.0 
2765.96520088 693.848 -1971.93796814 -15.585873271 32.7750736139 11.0383429492 5.79562 0.0835159 -0.356792 5.79568 0.10605 -0.350755 5.79497 0.144123 -0.336903 5.79482 0.0891075 -0.355437 -20.0427 4.8289 -1.20053 -20.1821 9.91747 0.91658 -0.0 0.0 -0.0 4.10768 1.39795 7.98991 27.3665 22.3886 70.1763 1.13617 -29.371 0.297771 29.6226 0.0778646 -3.74142 4.08528 20.6022 34.9219 -0.0 0.0 -0.0 -0.450745 -9.31741 -0.320247 15.638 -80.465 -60.0463 0.500525 13.9256 -0.0611271 82.0283 4.07437 8.71994 -2.34257 -15.3313 8.24158 0.0 0.0 0.0 17.5087 3.31494 0.209338 -26.4342 0.164045 4.01744 39.5639 1.0586 -4.83131 -6.89755 0.0 0.0 -0.0 0.0 -0.0 49.8245 22.8891 -12.2365 -19.5683 -0.300525 -2.9733 21.8695 -27.7812 3.1658 31.838 -0.0 -0.0 0.0 0.0 0.0 
2744.13931059 683.474 -1985.55215224 -14.7429802737 32.8235016058 10.0175209254 5.69272 0.349468 -0.288677 5.69269 0.367129 -0.265854 5.69103 0.394641 -0.222982 5.69113 0.354473 -0.28251 -18.7308 4.24542 -2.4882 -18.8317 9.49162 -0.632208 -0.0 0.0 -0.0 3.98906 4.59442 7.90008 25.875 21.5782 71.6526 1.19792 -30.6843 0.328671 29.9436 0.0680965 -3.78125 4.74751 21.2318 40.2024 -0.0 0.0 -0.0 -0.393717 -10.4573 -0.563497 7.51861 -80.679 -67.795 0.602191 16.6104 -0.0879067 82.0611 4.07822 8.72166 -2.52708 -16.7688 8.65116 0.0 0.0 0.0 15.0303 1.4054 1.44369 -27.0919 0.144422 4.11646 39.8621 -1.26163 -4.87452 -7.37964 0.0 0.0 -0.0 0.0 -0.0 49.8278 22.9918 -12.944 -12.7005 -0.311185 -1.92025 11.4859 -23.615 1.68793 28.4707 -0.0 -0.0 0.0 0.0 0.0 
2719.79338933 672.618 -2003.9962167 -14.8404119195 33.0253394835 9.9964978295 5.7534 0.283427 -0.246272 5.75339 0.298523 -0.227737 5.75223 0.321985 -0.193149 5.75229 0.287439 -0.241576 -16.972 4.88878 -1.68408 -17.0815 10.3303 0.2168 -0.0 0.0 -0.0 3.73096 5.3808 7.45577 24.5975 20.4284 71.3725 1.26826 -32.138 0.365333 31.9209 0.00299995 -4.0254 4.70442 21.8113 39.9461 -0.0 0.0 -0.0 -0.112746 -10.1565 -1.00882 8.14239 -80.5684 -66.8551 0.614473 16.9299 -0.0914503 82.0367 4.07536 8.72038 -2.45635 -16.2782 8.46645 0.0 0.0 0.0 13.5208 1.79995 1.95065 -27.4221 0.13414 4.1661 39.6372 -0.334392 -4.84716 -7.07265 0.0 0.0 -0.0 0.0 -0.0 46.4191 23.341 -12.6013 -4.71703 -0.165271 -0.704854 10.0799 -25.1097 1.49954 28.9251 -0.0 -0.0 0.0 0.0 0.0 
2699.03832591 668.646 -2022.04432376 -15.5234192612 32.6618370388 10.2634827345 5.82894 0.219678 -0.130032 5.82893 0.227507 -0.11579 5.82849 0.238846 -0.090107 5.82855 0.221618 -0.126698 -13.4061 7.23683 -0.838921 -13.5466 14.3021 1.42837 -0.0 0.0 -0.0 3.38012 6.61968 6.87171 21.6339 18.1452 71.8477 1.34486 -33.67 0.406951 33.2028 -0.0436922 -4.18244 4.87797 22.9707 41.5256 -0.0 0.0 -0.0 0.0421524 -7.30349 -0.942349 15.164 -83.4999 -59.2282 0.565098 15.6388 -0.0776046 82.2106 4.09575 8.72943 -2.82305 -16.9224 10.4053 0.0 0.0 0.0 12.4898 1.22698 2.29693 -26.5429 0.16088 4.03382 40.1325 -2.92965 -4.91524 -7.28166 0.0 0.0 -0.0 0.0 -0.0 43.2098 24.8133 -11.933 0.726583 0.0306006 0.107298 3.824 -24.5102 0.577217 28.8347 -0.0 -0.0 0.0 0.0 0.0 
